# xmcd
#
# Track frame offsets:
#	150
#	11448
#	23314
#	43678
#	59350
#	77371
#	88631
#	100826
#	118655
#	134308
#	148320
#	159832
#	173368
#	186934
#
# Disc length: 2670 seconds
# Revision: 1
# Processed by: cddbd v1.5.2PL0 Copyright (c) Steve Scherf et al.
# Submitted via: dBpowerAMP V12.0
#
DISCID=a20a6c0e
DTITLE=Steve Gulley and Tim Stafford - Dogwood Winter
DYEAR=2010
DGENRE=Country
TTITLE0=Why Ask Why?
TTITLE1=Just Along for the Ride
TTITLE2=Dogwood Winter
TTITLE3=Nebraska Sky
TTITLE4=Just Another Setting Sun
TTITLE5=How Did That Turn into My Problem?
TTITLE6=On a Day Like This
TTITLE7=You Hurt Me All Over Again
TTITLE8=Snow
TTITLE9=Torches
TTITLE10=Deep End Man
TTITLE11=Sixteen Cents
TTITLE12=Dying Won't be Hard at All
TTITLE13=Angel on Its Way
EXTD=
EXTT0=
EXTT1=
EXTT2=
EXTT3=
EXTT4=
EXTT5=
EXTT6=
EXTT7=
EXTT8=
EXTT9=
EXTT10=
EXTT11=
EXTT12=
EXTT13=
PLAYORDER=
